<?xml version="1.0" encoding="utf-8"?>
<!-- Generator: Adobe Illustrator 15.0.0, SVG Export Plug-In . SVG Version: 6.00 Build 0)  -->
<svg version="1.2" baseProfile="tiny" id="Layer_1" xmlns="http://www.w3.org/2000/svg" xmlns:xlink="http://www.w3.org/1999/xlink"
	 x="0px" y="0px" width="595.281px" height="295.445px" viewBox="0 0 595.281 295.445" xml:space="preserve">
<g>
	<path d="M57.118,197.706V80.758h29.154v116.948H57.118z"/>
	<path d="M230.052,197.706h-30.148l-21.037-74.873l-21.203,74.873h-30.148L97.864,80.758h29.32l17.228,80.505l21.203-80.505h26.007
		l21.865,80.505l17.063-80.505h29.154L230.052,197.706z"/>
	<path d="M361.9,188.927c-6.294,5.135-17.559,12.258-36.773,12.258c-7.123,0-26.504-1.159-41.413-16.73
		c-15.736-16.564-16.73-38.762-16.73-45.719c0-6.13,0.828-22.694,11.099-37.769c5.964-8.779,19.547-23.854,46.713-23.854
		c22.197,0,35.615,9.938,41.744,16.233c11.264,11.596,17.559,30.646,17.559,46.713C384.097,157.95,376.312,177.165,361.9,188.927z
		 M347.323,112.563c-1.49-1.988-4.969-6.129-11.264-8.779c-4.97-1.988-9.276-2.153-11.265-2.153c-6.46,0-10.933,2.153-13.086,3.313
		c-11.761,6.626-15.902,21.037-15.902,33.461c0,15.902,4.97,24.517,9.773,29.651c5.135,5.467,12.092,8.448,19.712,8.448
		c3.811,0,12.921-0.994,20.21-8.779c6.625-7.123,8.944-16.399,9.275-25.676C355.274,127.305,350.802,117.366,347.323,112.563z"/>
</g>
<path fill="#091117" d="M487.194,201.21c-2.072-12.94-9.318-25.882-20.707-38.822c-12.422-13.977-30.021-27.952-51.762-40.894
	c22.258,15.012,38.305,30.541,46.586,45.553c2.588,4.658,4.141,8.799,5.176,13.458c1.035,5.177,1.555,10.353,0.518,15.529
	c-0.518,2.588-1.553,4.658-2.588,7.247c-21.223,51.763-166.678,69.88-334.91,39.34c-7.246-1.035-13.975-2.588-20.705-4.141
	c-33.646-6.729-65.738-15.012-94.727-24.329c10.871,6.212,22.775,12.423,35.199,18.117c27.953,12.94,60.045,24.847,95.244,34.164
	c16.564,4.141,33.646,8.282,51.246,11.388c5.695,1.035,10.871,1.553,16.047,2.588c45.553,7.247,89.033,9.317,127.338,7.247
	c26.918-1.553,51.246-5.177,71.951-10.87c37.27-10.353,63.67-26.399,72.986-48.141c1.555-3.623,2.59-7.246,3.625-10.87
	C488.229,212.081,487.711,206.904,487.194,201.21z"/>
<polygon fill="#091117" points="546.526,49.069 556.511,49.069 551.379,32.445 "/>
<path fill="#091117" d="M450.695,38.47c2.231-0.39,2.957-1.395,3.291-2.287c0.112-0.279,0.335-0.948,0.335-1.841
	c0-0.837-0.167-2.845-2.565-3.626c-0.503-0.167-1.116-0.279-2.232-0.279h-8.479v8.201h7.419
	C448.519,38.637,449.914,38.582,450.695,38.47z"/>
<path fill="#091117" d="M452.759,46.168c-0.726-0.279-1.507-0.391-3.18-0.391h-8.535v9.54h6.861c3.515,0,5.244-0.391,6.527-1.729
	c0.445-0.502,1.06-1.395,1.06-3.012C455.493,47.675,453.875,46.559,452.759,46.168z"/>
<path fill="#091117" d="M569.682,7.646H427.086c-6.303,0-11.523,5.222-11.523,11.523v47.172c0,6.302,5.221,11.523,11.523,11.523
	h142.596c6.303,0,11.523-5.222,11.523-11.523V19.17C581.206,12.868,575.985,7.646,569.682,7.646z M460.792,60.003
	c-3.236,2.176-7.029,2.455-10.822,2.455h-18.299V23.073h16.179c1.06,0,2.12,0,3.124,0.056c4.072,0.167,8.424,0.669,11.102,4.24
	c0.78,1.004,1.896,2.845,1.896,5.802c0,5.132-3.403,7.308-5.133,8.089c-0.948,0.391-1.506,0.558-3.291,0.948
	c0.558,0.056,1.06,0.167,1.563,0.279c4.63,0.837,6.526,2.957,7.475,4.909c0.335,0.67,0.893,2.12,0.893,4.073
	C465.478,53.197,464.92,57.27,460.792,60.003z M502.07,62.458h-30.906V23.073h29.121v7.587h-19.303v7.196h18.02v7.475h-18.02v9.372
	h21.088V62.458z M523.991,62.458h-9.93V30.827h-10.265v-7.754H534.2v7.754h-10.209V62.458z M560.696,62.458l-1.953-6.304h-14.504
	l-1.953,6.304h-10.487l14.616-39.385h10.265l14.504,39.385H560.696z"/>
</svg>
